<?xml version="1.0" encoding="utf-8"?>
<!-- Svg Vector Icons : http://www.onlinewebfonts.com/icon -->
<!DOCTYPE svg PUBLIC "-//W3C//DTD SVG 1.1//EN" "http://www.w3.org/Graphics/SVG/1.1/DTD/svg11.dtd">
<svg version="1.1" xmlns="http://www.w3.org/2000/svg" xmlns:xlink="http://www.w3.org/1999/xlink" x="0px" y="0px" viewBox="0 0 1000 1000" enable-background="new 0 0 1000 1000" xml:space="preserve">
<metadata> Svg Vector Icons : http://www.onlinewebfonts.com/icon </metadata>
<g><g transform="translate(0.000000,511.000000) scale(0.100000,-0.100000)"><path d="M4081.2,4556.4l-61.3-58.8V109.7v-4387.9l61.3-58.8c78.4-80.8,191.1-80.8,269.5,0l61.3,58.8V109.7v4387.9l-61.3,58.8c-36.8,39.2-88.2,61.3-134.8,61.3S4118,4595.6,4081.2,4556.4z"/><path d="M4865.2,2988.4l-61.3-58.8v-2820v-2819.9l61.3-58.8c78.4-80.8,191.1-80.8,269.5,0l61.3,58.8V109.7v2820l-61.3,58.8c-36.7,39.2-88.2,61.3-134.7,61.3C4953.5,3049.7,4902,3027.6,4865.2,2988.4z"/><path d="M2513.3,2596.4l-61.3-58.8V109.7v-2427.9l61.3-58.8c36.7-39.2,88.2-61.3,134.7-61.3s98,22.1,134.8,61.3l61.3,58.8V109.7v2427.9l-61.3,58.8c-36.7,39.2-88.2,61.3-134.8,61.3S2550,2635.6,2513.3,2596.4z"/><path d="M5649.2,2204.4l-61.3-58.8V109.7v-2035.9l61.3-58.8c78.4-80.8,191.1-80.8,269.5,0l61.3,58.8V109.7v2035.9l-61.3,58.8c-36.7,39.2-88.2,61.3-134.7,61.3S5686,2243.7,5649.2,2204.4z"/><path d="M8001.2,2204.4l-61.3-58.8v-1840v-1839.9l61.3-58.8c78.4-80.8,191.1-80.8,269.5,0l61.3,58.8V305.7v1840l-61.3,58.8c-36.7,39.2-88.2,61.3-134.8,61.3C8089.4,2265.7,8038,2243.7,8001.2,2204.4z"/><path d="M945.2,1420.4l-61.3-58.8v-1252v-1251.9l61.3-58.8c78.4-80.8,191.1-80.8,269.5,0l61.3,58.8V109.7v1252l-61.3,58.8c-36.8,39.2-88.2,61.3-134.8,61.3S982,1459.6,945.2,1420.4z"/><path d="M1729.2,1028.4l-61.3-58.8v-860v-859.9l61.3-58.8c36.8-39.2,88.2-61.3,134.8-61.3s98,22.1,134.8,61.3l61.3,58.8v859.9v860l-61.3,58.8c-36.7,39.2-88.2,61.3-134.8,61.3S1766,1067.6,1729.2,1028.4z"/><path d="M3297.3,1028.4l-61.3-58.8v-860v-859.9l61.3-58.8c36.7-39.2,88.2-61.3,134.8-61.3s98,22.1,134.7,61.3l61.3,58.8v859.9v860l-61.3,58.8c-36.7,39.2-88.2,61.3-134.7,61.3S3334,1067.6,3297.3,1028.4z"/><path d="M6433.3,1028.4l-61.3-58.8v-860v-859.9l61.3-58.8c36.7-39.2,88.2-61.3,134.7-61.3c46.6,0,98,22.1,134.8,61.3l61.3,58.8v859.9v860l-61.3,58.8c-36.8,39.2-88.2,61.3-134.8,61.3C6521.4,1089.7,6470,1067.6,6433.3,1028.4z"/><path d="M8785.3,1028.4l-61.3-58.8v-860v-859.9l61.3-58.8c36.7-39.2,88.2-61.3,134.7-61.3s98,22.1,134.7,61.3l61.3,58.8v859.9v860l-61.3,58.8c-36.7,39.2-88.2,61.3-134.7,61.3S8822,1067.6,8785.3,1028.4z"/><path d="M161.2,636.4C100,577.6,100,572.7,100,109.7c0-463.1,0-467.9,61.2-526.7c36.7-39.2,88.2-61.3,134.8-61.3s98,22.1,134.8,61.3C492-358.2,492-353.4,492,109.7c0,463,0,467.9-61.2,526.7c-36.8,39.2-88.2,61.3-134.8,61.3S198,675.6,161.2,636.4z"/><path d="M7217.2,636.4c-61.3-58.8-61.3-63.7-61.3-526.7c0-463.1,0-467.9,61.3-526.7c36.8-39.2,88.2-61.3,134.8-61.3c46.6,0,98,22.1,134.7,61.3c61.3,58.8,61.3,63.7,61.3,526.7c0,463,0,467.9-61.3,526.7c-36.7,39.2-88.2,61.3-134.7,61.3C7305.4,697.7,7254,675.6,7217.2,636.4z"/><path d="M9569.2,636.4c-61.3-58.8-61.3-63.7-61.3-526.7c0-463.1,0-467.9,61.3-526.7c36.7-39.2,88.2-61.3,134.8-61.3c46.6,0,98,22.1,134.7,61.3c61.3,58.8,61.3,63.7,61.3,526.7c0,463,0,467.9-61.3,526.7c-36.7,39.2-88.2,61.3-134.7,61.3C9657.4,697.7,9606,675.6,9569.2,636.4z"/></g></g>
</svg>