<?xml version="1.0" encoding="utf-8"?>
<!-- Svg Vector Icons : http://www.onlinewebfonts.com/icon -->
<!DOCTYPE svg PUBLIC "-//W3C//DTD SVG 1.1//EN" "http://www.w3.org/Graphics/SVG/1.1/DTD/svg11.dtd">
<svg version="1.1" xmlns="http://www.w3.org/2000/svg" xmlns:xlink="http://www.w3.org/1999/xlink" x="0px" y="0px" viewBox="0 0 1000 1000" enable-background="new 0 0 1000 1000" xml:space="preserve">
<metadata> Svg Vector Icons : http://www.onlinewebfonts.com/icon </metadata>
<g><path d="M67.6,545.4c0,15.8-12.9,28.7-28.7,28.7l0,0c-15.9,0-28.8-12.9-28.8-28.7v-90.7c0-15.9,12.9-28.8,28.8-28.8l0,0c15.9,0,28.7,12.9,28.7,28.8V545.4z"/><path d="M170,610.5c0,15.8-12.8,28.7-28.7,28.7l0,0c-15.9,0-28.7-12.9-28.7-28.7v-221c0-15.9,12.8-28.8,28.7-28.8l0,0c15.9,0,28.7,12.9,28.7,28.8V610.5z"/><path d="M272.5,708.3c0,15.8-12.9,28.7-28.7,28.7l0,0c-15.9,0-28.8-12.9-28.8-28.7V291.8c0-15.9,12.9-28.8,28.8-28.8l0,0c15.9,0,28.7,12.9,28.7,28.8V708.3z"/><path d="M375,550.2c0,15.9-12.8,28.8-28.7,28.8l0,0c-15.9,0-28.8-12.9-28.8-28.8V449.8c0-15.9,12.9-28.7,28.8-28.7l0,0c15.9,0,28.7,12.8,28.7,28.7V550.2z"/><path d="M477.5,648c0,15.8-12.8,28.7-28.7,28.7l0,0c-15.9,0-28.7-12.9-28.7-28.7V352c0-15.9,12.8-28.7,28.7-28.7l0,0c15.9,0,28.7,12.8,28.7,28.7V648z"/><path d="M580,582.8c0,15.8-12.8,28.7-28.7,28.7l0,0c-15.9,0-28.7-12.9-28.7-28.7V417.2c0-15.9,12.8-28.7,28.7-28.7l0,0c15.9,0,28.7,12.8,28.7,28.7V582.8z"/><path d="M682.5,773.5c0,15.8-12.8,28.7-28.7,28.7l0,0c-15.9,0-28.7-12.9-28.7-28.7V226.6c0-15.9,12.8-28.8,28.7-28.8l0,0c15.9,0,28.7,12.9,28.7,28.8V773.5z"/><path d="M990,550.3c0,15.8-12.8,28.7-28.7,28.7l0,0c-15.9,0-28.7-12.8-28.7-28.7V449.9c0-15.9,12.8-28.7,28.7-28.7l0,0c15.9,0,28.7,12.8,28.7,28.7V550.3z"/><path d="M887.5,582.8c0,15.8-12.8,28.7-28.7,28.7l0,0c-15.9,0-28.7-12.9-28.7-28.7V417.2c0-15.9,12.8-28.7,28.7-28.7l0,0c15.9,0,28.7,12.8,28.7,28.7V582.8z"/><path d="M785,648c0,15.8-12.8,28.7-28.7,28.7l0,0c-15.9,0-28.7-12.9-28.7-28.7V352c0-15.9,12.8-28.7,28.7-28.7l0,0c15.9,0,28.7,12.8,28.7,28.7V648z"/></g>
</svg>