<?xml version="1.0" encoding="utf-8"?>
<!-- Svg Vector Icons : http://www.onlinewebfonts.com/icon -->
<!DOCTYPE svg PUBLIC "-//W3C//DTD SVG 1.1//EN" "http://www.w3.org/Graphics/SVG/1.1/DTD/svg11.dtd">
<svg version="1.1" xmlns="http://www.w3.org/2000/svg" xmlns:xlink="http://www.w3.org/1999/xlink" x="0px" y="0px" viewBox="0 0 1000 1000" enable-background="new 0 0 1000 1000" xml:space="preserve">
<metadata> Svg Vector Icons : http://www.onlinewebfonts.com/icon </metadata>
<g><g transform="translate(0.000000,511.000000) scale(0.100000,-0.100000)"><path d="M4509.5,5000.7c-230.3-9.8-729.9-62.4-971.8-105.4c-630.3-105.4-1215.8-320-1631.5-599.1c-320-210.8-649.9-583.5-819.6-917.2C789.9,2793.5,727.5,1952.4,909,1031.3C1127.6-71.3,1752-1577.8,2351.1-2440.4c351.3-507.4,966-1169,1457.8-1569c493.7-400.1,1073.3-780.6,1190.4-780.6c42.9,0,136.6,44.9,304.4,144.4c872.3,528.8,1752.5,1352.4,2330.1,2181.8c357.1,517.1,692.8,1182.6,1008.9,2006.2C9279,1199.2,9362.9,2495,8896.5,3400.5c-439.1,850.9-1366.1,1370-2757.5,1543.6C5664.8,5002.6,5061.8,5024.1,4509.5,5000.7z M6041.4,4616.2c1727.1-222.5,2617-905.5,2788.7-2146.7c31.2-218.6,25.4-694.7-7.8-962.1C8711.1,654.7,8391-307.4,7866.1-1376.8c-370.8-753.3-702.5-1213.8-1334.8-1846.1c-474.2-472.3-1018.7-907.5-1448-1155.3l-89.8-52.7l-240,158.1C3814.8-3660.1,2995.1-2840.4,2452.6-1972c-384.5,612.8-848.9,1701.7-1083.1,2542.8c-345.4,1231.4-296.6,2201.3,146.4,2862.9c130.7,195.2,398.1,458.6,595.2,589.4c484,316.1,1159.2,525,1939.8,599.1c122.9,11.7,255.6,25.4,292.7,29.3C4527.1,4672.8,5811.2,4645.5,6041.4,4616.2z"/></g></g>
</svg>